<?xml version="1.0" encoding="UTF-8"?>
<svg id="Lag_2" data-name="Lag 2" xmlns="http://www.w3.org/2000/svg" viewBox="0 0 640.45 598.26">
  <defs>
    <style>
      .cls-1 {
        fill: #89ff00;
      }

      .cls-2 {
        fill: #009fe3;
      }

      .cls-3, .cls-4, .cls-5, .cls-6, .cls-7 {
        fill: #fff;
      }

      .cls-3, .cls-8, .cls-5 {
        stroke: #fff;
        stroke-miterlimit: 10;
      }

      .cls-8 {
        fill: none;
        stroke-width: 5px;
      }

      .cls-5 {
        stroke-width: 4px;
      }

      .cls-6 {
        font-size: 179.23px;
      }

      .cls-6, .cls-7 {
        font-family: FranklinGothic-Demi, 'Franklin Gothic Demi';
        font-weight: 300;
      }

      .cls-9 {
        fill: #e6007e;
      }

      .cls-10 {
        letter-spacing: .03em;
      }

      .cls-11 {
        letter-spacing: .04em;
      }

      .cls-7 {
        font-size: 170.19px;
        letter-spacing: .04em;
      }

      .cls-12 {
        fill: #ffed00;
      }
    </style>
  </defs>
  <g id="Lag_1-2" data-name="Lag 1">
    <g>
      <rect class="cls-1" x="7.95" y="329.59" width="0" height="3.06"/>
      <polygon class="cls-8" points="186.48 303.7 157.82 246.53 129.25 189.3 186.48 189.24 243.71 189.3 215.14 246.53 186.48 303.7"/>
      <polygon class="cls-3" points="215.14 294.77 186.48 351.94 157.82 294.77 157.79 294.71 129.25 294.71 129.25 409.17 243.71 409.17 243.71 294.71 215.17 294.71 215.14 294.77"/>
      <polygon class="cls-5" points="240.82 137.66 186.57 109 240.82 80.34 240.88 80.31 240.88 51.77 132.25 51.77 132.25 166.23 240.88 166.23 240.88 137.69 240.82 137.66"/>
      <path class="cls-8" d="M243.71,457.51c-10.11-19.21-30.41-32.33-53.81-32.33-33.49,0-60.65,26.86-60.65,60s27.15,60,60.65,60c23.4,0,43.7-13.13,53.81-32.33l-55.78-27.67,55.78-27.67Z"/>
      <text class="cls-6" transform="translate(256.76 168.8) scale(.98 1)"><tspan class="cls-10" x="0" y="0">L</tspan><tspan class="cls-11" x="96.17" y="0">UB</tspan></text>
      <g>
        <path class="cls-4" d="M56.13,298.69c-1.93,3.84-2.89,8.14-2.89,12.91,0,7.89,2.61,14.45,7.83,19.7,5.22,5.24,11.65,7.86,19.29,7.86s13.46-2.16,18.6-6.49c6.08-5.16,9.12-12.2,9.12-21.13,0-4.7-.91-8.95-2.72-12.75-1.81-3.81-4.37-6.98-7.68-9.53l-3.12,4.03c5.73,4.81,8.59,10.79,8.59,17.94,0,6.5-2.13,11.89-6.39,16.15-4.26,4.27-9.57,6.4-15.93,6.4-4.21,0-8-.95-11.38-2.86-3.37-1.91-6.06-4.6-8.06-8.07-2-3.47-3-7.24-3-11.31,0-3.72.76-7.14,2.29-10.26,1.53-3.11,3.77-5.78,6.73-8l-3.16-4.03c-3.48,2.45-6.18,5.6-8.11,9.44h0ZM56.88,275.11c2.43,4.1,5.78,7.33,10.06,9.71,4.28,2.37,8.93,3.56,13.95,3.56,7.52,0,13.94-2.61,19.24-7.81,5.3-5.21,7.95-11.6,7.95-19.17s-2.66-13.82-7.99-19.01c-5.32-5.2-11.81-7.8-19.45-7.8s-14.21,2.61-19.48,7.81c-5.28,5.21-7.91,11.68-7.91,19.41,0,4.77,1.21,9.2,3.64,13.3h0ZM61.33,250.67c2.01-3.43,4.69-6.09,8.04-7.98,3.35-1.89,7.1-2.83,11.24-2.83s7.96.94,11.37,2.83c3.41,1.89,6.1,4.52,8.06,7.89,1.97,3.37,2.95,7.04,2.95,11,0,5.93-2.14,11-6.41,15.21-4.27,4.21-9.51,6.31-15.72,6.31-4.19,0-7.99-.95-11.4-2.85-3.41-1.9-6.12-4.54-8.13-7.93-2.01-3.38-3.02-6.96-3.02-10.74s1.01-7.48,3.02-10.91h0ZM106.76,229.32v-24.74h-5.04v19.64h-47.17v5.1h52.21ZM106.76,199.34v-24.74h-5.04v19.64h-47.17v5.1h52.21ZM106.76,169.32v-29.05h-5.11v23.95h-20.51v-18.49h-5.11v18.49h-16.36v-24.15h-5.11v29.26h52.21ZM106.76,78.58v-29.05h-5.11v23.95h-20.51v-19.4h-5.11v19.4h-16.36v-24.15h-5.11v29.25h52.21Z"/>
        <path class="cls-4" d="M106.73,530.62v-17.06h-37.43v-15.02h-14.76v47.1h14.76v-15.02h37.43ZM106.73,494.84v-43.89h-14.32v27.12h-5.67v-22.87h-12.6v22.87h-5.29v-26.76h-14.32v43.53h52.2ZM106.73,414.92c-.75-2.5-1.75-4.74-3.02-6.71-1.27-1.97-2.76-3.68-4.47-5.14-1.71-1.46-3.54-2.72-5.48-3.79l-8.13,14.07c1.94,1.07,3.52,2.33,4.74,3.79,1.22,1.46,1.83,3.4,1.83,5.83,0,1.41-.29,2.7-.86,3.86-.57,1.17-1.37,2.18-2.39,3.03-1.02.85-2.24,1.51-3.65,1.97-1.42.46-2.97.69-4.66.69h-.15c-1.54,0-3.01-.23-4.4-.69-1.39-.46-2.61-1.1-3.65-1.93-1.04-.83-1.86-1.82-2.46-2.99-.6-1.17-.9-2.48-.9-3.94,0-2.33.59-4.22,1.75-5.65,1.17-1.43,2.7-2.64,4.59-3.61l-8.43-14.07c-1.99,1.07-3.81,2.35-5.48,3.83-1.67,1.48-3.09,3.18-4.29,5.1-1.19,1.92-2.13,4.06-2.8,6.42-.67,2.36-1.01,4.95-1.01,7.77,0,3.79.68,7.34,2.05,10.65,1.37,3.31,3.27,6.19,5.7,8.64,2.44,2.45,5.32,4.37,8.65,5.76,3.33,1.39,6.93,2.08,10.81,2.08h.15c4.03,0,7.71-.72,11.04-2.15,3.33-1.43,6.19-3.36,8.58-5.8,2.39-2.43,4.23-5.24,5.52-8.42,1.29-3.18,1.94-6.55,1.94-10.1,0-3.16-.37-5.99-1.12-8.49h0ZM106.73,396.44v-17.06h-18.72v-15.6h18.72v-17.06h-52.2v17.06h18.42v15.6h-18.42v17.06h52.2Z"/>
        <path class="cls-4" d="M57.45,95.83c-5.52,8.81-5.53,20.35.92,29.35,8.68,12.11,25.75,15.06,38.14,6.58,12.39-8.48,15.4-25.18,6.73-37.29-6.41-8.95-17.41-12.89-27.71-10.92l.92,4.62c8.5-1.63,17.56,1.61,22.85,8.99,7.15,9.99,4.67,23.75-5.54,30.75-10.21,6.99-24.29,4.57-31.44-5.42-5.32-7.42-5.3-16.93-.75-24.19l-4.1-2.46h0Z"/>
        <polygon class="cls-4" points="77.93 109.99 81.93 107.25 67.4 86.95 63.39 89.69 77.93 109.99 77.93 109.99"/>
      </g>
      <rect class="cls-2" x="268.48" y="299.56" width="83.55" height="23.55"/>
      <rect class="cls-12" x="268.48" y="340.16" width="83.55" height="23.55"/>
      <rect class="cls-9" x="268.48" y="380.75" width="83.55" height="23.55"/>
      <polygon class="cls-4" points="636.2 568.18 636.2 424.88 600.71 424.88 600.71 568.18 46.48 568.18 46.48 568.2 30.06 568.2 30.06 490.63 0 490.63 0 598.21 25.56 598.21 25.56 598.26 46.48 598.26 600.71 598.26 636.2 598.26 636.65 598.26 636.65 568.18 636.2 568.18"/>
      <circle class="cls-4" cx="618.68" cy="113.48" r="17.97"/>
      <rect class="cls-4" x="0" y="435.92" width="30.06" height="30.06"/>
      <polygon class="cls-4" points="0 0 0 .26 0 30.32 0 409.17 30.06 409.17 30.06 30.32 600.48 30.32 600.48 72.27 636.4 72.27 636.4 30.32 636.4 18.94 636.4 0 0 0"/>
      <g>
        <path class="cls-4" d="M452.57,424.44v121.49h121.49v-121.49h-121.49ZM556.73,528.37h-86.84v-86.84h86.84v86.84Z"/>
        <rect class="cls-4" x="487.15" y="459.02" width="52.32" height="52.32"/>
      </g>
      <text class="cls-7" transform="translate(360.53 408.73) scale(1.04 1)"><tspan x="0" y="0">DIE</tspan></text>
      <g>
        <polygon class="cls-4" points="413.6 423.96 413.6 444.28 393.27 444.28 393.27 464.61 372.95 464.61 372.95 484.94 352.62 484.94 352.62 464.61 332.29 464.61 311.96 464.61 311.96 484.94 311.96 505.27 291.64 505.27 291.64 525.59 271.31 525.59 271.31 545.92 291.64 545.92 311.96 545.92 311.96 525.59 332.29 525.59 332.29 505.27 352.62 505.27 352.62 525.59 372.95 525.59 372.95 505.27 393.27 505.27 393.27 484.94 413.6 484.94 413.6 464.61 433.93 464.61 433.93 444.28 433.93 423.96 413.6 423.96"/>
        <rect class="cls-4" x="352.62" y="444.28" width="20.33" height="20.33"/>
        <rect class="cls-4" x="372.95" y="423.96" width="20.33" height="20.33"/>
        <polygon class="cls-4" points="352.62 444.28 352.62 423.96 332.29 423.96 311.96 423.96 311.96 444.28 332.29 444.28 352.62 444.28"/>
        <polygon class="cls-4" points="311.96 464.61 311.96 444.28 291.64 444.28 291.64 423.96 271.31 423.96 271.31 505.27 291.64 505.27 291.64 464.61 311.96 464.61"/>
        <rect class="cls-4" x="372.95" y="525.59" width="20.33" height="20.33"/>
        <polygon class="cls-4" points="413.6 525.59 413.6 545.92 433.93 545.92 433.93 525.59 433.93 505.27 413.6 505.27 393.27 505.27 393.27 525.59 413.6 525.59"/>
      </g>
      <rect class="cls-4" x="600.66" y="155.49" width="36.05" height="121.19"/>
      <rect class="cls-4" x="268.48" y="186.02" width="310.98" height="90.67"/>
    </g>
  </g>
</svg>