<?xml version="1.0" encoding="UTF-8"?>
<svg id="Lag_2" data-name="Lag 2" xmlns="http://www.w3.org/2000/svg" viewBox="0 0 641.73 599.45">
  <defs>
    <style>
      .cls-1 {
        fill: #89ff00;
      }

      .cls-2 {
        fill: #009fe3;
      }

      .cls-3 {
        stroke-width: 4px;
      }

      .cls-3, .cls-4 {
        stroke: #000;
        stroke-miterlimit: 10;
      }

      .cls-5 {
        font-size: 170.53px;
        letter-spacing: .04em;
      }

      .cls-5, .cls-6 {
        font-family: FranklinGothic-Demi, 'Franklin Gothic Demi';
        font-weight: 300;
      }

      .cls-7 {
        fill: #e6007e;
      }

      .cls-8 {
        letter-spacing: .04em;
      }

      .cls-9 {
        fill: #1d1d1b;
      }

      .cls-6 {
        font-size: 179.58px;
      }

      .cls-10 {
        letter-spacing: .03em;
      }

      .cls-4 {
        fill: none;
        stroke-width: 5px;
      }

      .cls-11 {
        fill: #ffed00;
      }
    </style>
  </defs>
  <g id="Lag_1-2" data-name="Lag 1">
    <g>
      <rect class="cls-1" x="7.96" y="330.25" width="0" height="3.07"/>
      <polygon class="cls-4" points="186.85 304.3 158.14 247.02 129.51 189.68 186.85 189.62 244.2 189.68 215.57 247.02 186.85 304.3"/>
      <polygon points="215.57 295.36 186.85 352.64 158.14 295.36 158.11 295.29 129.51 295.29 129.51 409.98 244.2 409.98 244.2 295.29 215.6 295.29 215.57 295.36"/>
      <polygon class="cls-3" points="241.3 137.94 186.94 109.22 241.3 80.5 241.36 80.47 241.36 51.88 132.52 51.88 132.52 166.56 241.36 166.56 241.36 137.97 241.3 137.94"/>
      <path class="cls-4" d="M244.2,458.42c-10.13-19.25-30.47-32.4-53.92-32.4-33.56,0-60.77,26.92-60.77,60.12s27.21,60.12,60.77,60.12c23.45,0,43.79-13.15,53.92-32.4l-55.89-27.72,55.89-27.72Z"/>
      <text class="cls-6" transform="translate(257.27 169.14) scale(.98 1)"><tspan class="cls-10" x="0" y="0">L</tspan><tspan class="cls-8" x="96.36" y="0">UB</tspan></text>
      <g>
        <path class="cls-9" d="M56.24,299.29c-1.93,3.85-2.9,8.16-2.9,12.94,0,7.91,2.61,14.48,7.84,19.73,5.23,5.25,11.67,7.88,19.33,7.88s13.49-2.17,18.63-6.5c6.09-5.17,9.14-12.23,9.14-21.18,0-4.71-.91-8.97-2.72-12.78-1.81-3.81-4.38-7-7.7-9.55l-3.13,4.03c5.74,4.82,8.61,10.81,8.61,17.98,0,6.51-2.13,11.91-6.4,16.19-4.27,4.28-9.59,6.42-15.97,6.42-4.22,0-8.02-.96-11.4-2.87-3.38-1.91-6.07-4.61-8.07-8.08-2-3.48-3.01-7.26-3.01-11.34,0-3.73.76-7.16,2.29-10.28,1.53-3.12,3.78-5.79,6.74-8.01l-3.17-4.03c-3.49,2.46-6.19,5.61-8.13,9.46h0ZM56.99,275.66c2.43,4.11,5.79,7.35,10.08,9.72,4.29,2.38,8.95,3.57,13.98,3.57,7.54,0,13.96-2.61,19.27-7.83,5.31-5.22,7.97-11.62,7.97-19.21s-2.67-13.84-8-19.05c-5.33-5.21-11.83-7.81-19.49-7.81s-14.24,2.61-19.52,7.83c-5.29,5.22-7.93,11.7-7.93,19.45,0,4.78,1.21,9.22,3.64,13.33h0ZM61.46,251.17c2.02-3.44,4.7-6.1,8.06-7.99,3.36-1.89,7.11-2.84,11.26-2.84s7.97.95,11.39,2.84c3.42,1.89,6.11,4.53,8.08,7.91,1.97,3.38,2.95,7.05,2.95,11.02,0,5.95-2.14,11.02-6.42,15.24-4.28,4.21-9.53,6.32-15.75,6.32-4.2,0-8.01-.95-11.42-2.85-3.42-1.9-6.13-4.55-8.15-7.94-2.02-3.39-3.03-6.98-3.03-10.76s1.01-7.5,3.03-10.94h0ZM106.97,229.78v-24.79h-5.05v19.68h-47.26v5.11h52.31ZM106.97,199.73v-24.79h-5.05v19.68h-47.26v5.11h52.31ZM106.97,169.65v-29.11h-5.12v23.99h-20.56v-18.53h-5.12v18.53h-16.39v-24.2h-5.12v29.31h52.31ZM106.97,78.73v-29.11h-5.12v24h-20.56v-19.44h-5.12v19.44h-16.39v-24.2h-5.12v29.31h52.31Z"/>
        <path class="cls-9" d="M106.94,531.67v-17.1h-37.51v-15.05h-14.79v47.19h14.79v-15.05h37.51ZM106.94,495.83v-43.98h-14.34v27.18h-5.68v-22.91h-12.63v22.91h-5.31v-26.81h-14.35v43.62h52.3ZM106.94,415.75c-.75-2.51-1.76-4.75-3.03-6.72-1.27-1.97-2.77-3.69-4.48-5.15-1.72-1.46-3.55-2.73-5.49-3.8l-8.14,14.1c1.94,1.07,3.52,2.34,4.74,3.8,1.22,1.46,1.83,3.41,1.83,5.84,0,1.41-.29,2.7-.86,3.87-.57,1.17-1.37,2.18-2.39,3.03-1.02.85-2.24,1.51-3.66,1.97-1.42.46-2.98.69-4.67.69h-.15c-1.54,0-3.01-.23-4.41-.69-1.39-.46-2.61-1.11-3.66-1.94-1.05-.83-1.87-1.83-2.47-3-.6-1.17-.9-2.48-.9-3.95,0-2.34.59-4.22,1.76-5.66,1.17-1.44,2.7-2.64,4.59-3.62l-8.44-14.1c-1.99,1.07-3.82,2.35-5.49,3.84-1.67,1.49-3.1,3.19-4.3,5.11-1.2,1.92-2.13,4.07-2.8,6.43-.67,2.36-1.01,4.96-1.01,7.78,0,3.8.68,7.36,2.05,10.67,1.37,3.31,3.28,6.2,5.72,8.66,2.44,2.46,5.33,4.38,8.67,5.77,3.34,1.39,6.95,2.08,10.83,2.08h.15c4.03,0,7.72-.72,11.06-2.16,3.34-1.44,6.2-3.37,8.59-5.81,2.39-2.43,4.23-5.25,5.53-8.44,1.29-3.19,1.94-6.56,1.94-10.12,0-3.17-.37-6-1.12-8.51h0ZM106.94,397.23v-17.1h-18.75v-15.63h18.75v-17.1h-52.3v17.1h18.46v15.63h-18.46v17.1h52.3Z"/>
        <path class="cls-9" d="M57.56,96.02c-5.53,8.83-5.54,20.39.92,29.41,8.69,12.14,25.8,15.09,38.22,6.59,12.41-8.5,15.43-25.23,6.74-37.37-6.42-8.97-17.44-12.92-27.77-10.94l.93,4.63c8.51-1.63,17.6,1.61,22.89,9.01,7.17,10.01,4.68,23.8-5.55,30.81-10.23,7.01-24.34,4.57-31.51-5.43-5.33-7.44-5.31-16.96-.75-24.24l-4.11-2.47h0Z"/>
        <polygon class="cls-9" points="78.08 110.21 82.1 107.46 67.54 87.12 63.52 89.87 78.08 110.21 78.08 110.21"/>
      </g>
      <rect class="cls-2" x="269.02" y="300.15" width="83.71" height="23.6"/>
      <rect class="cls-11" x="269.02" y="340.83" width="83.71" height="23.6"/>
      <rect class="cls-7" x="269.02" y="381.51" width="83.71" height="23.6"/>
      <polygon points="637.46 569.31 637.46 425.72 601.9 425.72 601.9 569.31 46.57 569.31 46.57 569.32 30.12 569.32 30.12 491.61 0 491.61 0 599.39 25.61 599.39 25.61 599.45 46.57 599.45 601.9 599.45 637.46 599.45 637.92 599.45 637.92 569.31 637.46 569.31"/>
      <circle cx="619.91" cy="113.71" r="18.01"/>
      <text class="cls-5" transform="translate(361.24 409.54) scale(1.04 1)"><tspan x="0" y="0">DIE</tspan></text>
      <rect x="0" y="436.78" width="30.12" height="30.12"/>
      <polygon points="0 0 0 .26 0 30.38 0 409.98 30.12 409.98 30.12 30.38 601.67 30.38 601.67 72.42 637.67 72.42 637.67 30.38 637.67 18.98 637.67 0 0 0"/>
      <g>
        <path d="M453.47,425.28v121.73h121.73v-121.73h-121.73ZM557.84,529.42h-87.02v-87.02h87.02v87.02Z"/>
        <rect x="488.12" y="459.93" width="52.42" height="52.42"/>
      </g>
      <rect x="414.42" y="424.8" width="20.37" height="20.37"/>
      <rect x="373.69" y="465.53" width="20.37" height="20.37"/>
      <rect x="414.42" y="445.17" width="20.37" height="20.37"/>
      <rect x="353.32" y="445.17" width="20.37" height="20.37"/>
      <rect x="373.69" y="424.8" width="20.37" height="20.37"/>
      <rect x="332.95" y="424.8" width="20.37" height="20.37"/>
      <rect x="312.58" y="424.8" width="20.37" height="20.37"/>
      <rect x="292.22" y="445.17" width="20.37" height="20.37"/>
      <rect x="271.85" y="424.8" width="20.37" height="81.47"/>
      <rect x="312.58" y="465.53" width="20.37" height="20.37"/>
      <rect x="332.95" y="485.9" width="20.37" height="20.37"/>
      <rect x="332.95" y="465.53" width="20.37" height="20.37"/>
      <rect x="353.32" y="506.27" width="20.37" height="20.37"/>
      <rect x="312.58" y="485.9" width="20.37" height="20.37"/>
      <rect x="353.32" y="485.9" width="20.37" height="20.37"/>
      <rect x="292.22" y="526.64" width="20.37" height="20.37" transform="translate(604.8 1073.64) rotate(180)"/>
      <rect x="271.85" y="526.64" width="20.37" height="20.37" transform="translate(564.06 1073.64) rotate(180)"/>
      <rect x="312.58" y="506.27" width="20.37" height="20.37" transform="translate(645.53 1032.91) rotate(180)"/>
      <rect x="292.22" y="506.27" width="20.37" height="20.37"/>
      <rect x="373.69" y="526.64" width="20.37" height="20.37"/>
      <rect x="414.42" y="526.64" width="20.37" height="20.37"/>
      <rect x="394.05" y="506.27" width="20.37" height="20.37"/>
      <rect x="414.42" y="506.27" width="20.37" height="20.37"/>
      <rect x="373.69" y="485.9" width="20.37" height="20.37"/>
      <rect x="394.05" y="445.17" width="20.37" height="40.74"/>
      <rect x="601.85" y="155.8" width="36.12" height="121.43"/>
      <rect x="269.02" y="186.38" width="311.59" height="90.85"/>
    </g>
  </g>
</svg>