<?xml version="1.0" encoding="UTF-8"?>
<svg id="Lag_2" data-name="Lag 2" xmlns="http://www.w3.org/2000/svg" viewBox="0 0 60.89 52.8">
  <defs>
    <style>
      .cls-1 {
        fill: #231f20;
      }
    </style>
  </defs>
  <g id="Layer_3" data-name="Layer 3">
    <g>
      <path class="cls-1" d="M18.54,14.64c1.91,3.64,10.81.56,15.46-7.66,4.71-8.32,7.99-9.04,12.96-.97,2.07,3.36,2.8,4.3,2.32,3.61-7.75-11.12-16.19,1.69-19.88,7.51-5.8,9.14,4.75,2.05,11.42,1.31,3.58-.39,8.24,2.13,13.64,5.5,4.99,3.11,9.12,6.57,2.28,5.51-7.91-1.23-15.3,9.48-22.6,14.89-7.74,5.73-28.78,13.3-32.82,2.23-2.99-8.17-1.31,1.39,9.35,2.75,11.02,1.41,23.89-6.67,27.91-15.84,4.49-10.24-5.57.93-17.2-1.91-5.43-1.33-8.61-6.35-7.23-11.81,1.25-4.94,4.59-11.4,4.39-5.14Z"/>
      <path class="cls-1" d="M17.74,37.39c3.8-1.94,8.33,3.44.76,7.25-4.59,2.31-9.38-.92-7.87-2.32,1.6-1.49,5.54-3.74,7.11-4.93Z"/>
    </g>
  </g>
</svg>