<?xml version="1.0" encoding="UTF-8"?>
<svg id="Layer_3" data-name="Layer 3" xmlns="http://www.w3.org/2000/svg" viewBox="0 0 240.94 153.07">
  <defs>
    <style>
      .cls-1 {
        fill: #231f20;
      }

      .cls-1, .cls-2 {
        stroke-width: 0px;
      }

      .cls-2 {
        fill: #fff;
      }
    </style>
  </defs>
  <rect class="cls-1" x="0" y="0" width="240.94" height="153.07"/>
  <g>
    <path class="cls-2" d="m128.46,58.5c.93.46,2.3.92,2.1,1.59-.16.81-2.82,2.14-4.64,1.03-1.79-1.02-1.3-1.68-.36-2.24.86-.61,1.81-.78,2.9-.38Z"/>
    <path class="cls-2" d="m107.85,62.45c1.44,5.96,9.1-.96,13.35-6.43,4.93-5.59,6.43-9.73,11.25-.77,2.09,2.99,2.82,3.79,2.02,3.15-.24-.2-.57-.52-.94-.94-7.6-13.93-10.55.78-16.37,7.58-4.94,6.06,1.82,5.22,7.95,1.11,3.08-2.6,7.65.84,12.44,3.9,4.41,3.2,9.05,6.02,3.36,5.57-6.55-2.12-9.43,6.4-19.72,13.06-8.97,6.65-25.36,11.45-28.51,1.49-1.34-2.19-1.33-3.7-.28-2.94.17.11.67.52.86.75,4.35,6.83,13.29,6.44,19.48,3.15,6.54-3.2,10.34-9.29,12.36-11.9,3.72-8.14-2.76-2.76-12.48-.84-14.44,2.14-6.55-23.48-4.78-15.92Z"/>
    <path class="cls-2" d="m107.07,82.49c1.8-.96,3-.4,3.81.91.95,1.12.78,3.32-3.2,5.4-4.15,1.93-8.11-.71-6.8-2.03,1.5-1.29,4.82-3.24,6.19-4.28Z"/>
  </g>
  <path class="cls-1" d="m333.16,102.84c-29.77,16.96-62.31,10-96.88,7.95,6.35-.52,12.49-.48,18.43-.57,31.23,4.71,54.9.91,73.07-9.99,24.19-13.11,49-50.16,44.41-54.58-4.27-6.57-29.26,27.24-59.77,44.87-33.76,21.9-76.18-1.01-76.04-16.55.02-10.89,14.46-2.3,30.69-2.38,16.45,1.21,34.68-6.25,47.54-19.56,7.51-4.66,30.79-27.72,54.85-47.74,12.09-9.26,24.46-15.67,35.86-17.07,11.42-2.01,21.87.98,30.74-3.59,1.39-.7,1.98,2.18.56,2.55-9.72,2.55-20.48-.57-32.28,2.19-11.8,2.21-24.64,10.29-38.52,22.58-15.6,12.81-31.98,33.06-49.96,49.11-27.59,23.96-45,20.99-44.35,27.4.45,6.65,27.2,10.51,52.62-11.32,17.12-13.45,31.54-33.61,41.9-46.13,10.47-13.08,16.88-18.52,20.35-15.44,14.78,10.69-19.14,71.41-53.22,88.29Z"/>
</svg>